<svg viewBox="0 0 900 600" width="900" height="600" xmlns="http://www.w3.org/2000/svg"><path d="m498 600 25.8-10c25.9-10 77.5-30 90.5-50s-12.6-40-18.3-60 8.7-40-2.3-60-47.4-40-61-60c-13.7-20-4.7-40 0-60 4.6-20 5-40 12.1-60 7.2-20 21.2-40 17.4-60-3.9-20-25.5-40-35.9-60-10.3-20-9.3-40 9.7-60s56-40 74.5-50L629 0h271v600Z" fill="#ef1921"/><path d="m600 600 9.2-10c9.1-10 27.5-30 30-50s-10.9-40-27.2-60-35.7-40-46.7-60-13.6-40-8.5-60c5.2-20 18.2-40 23.4-60 5.1-20 2.5-40 11.1-60 8.7-20 28.7-40 37.5-60 8.9-20 6.5-40 2.7-60s-9.2-40-17-60-18.2-40-23.3-50L586 0h314v600Z" fill="#df171f"/><path d="m692 600 7-10c7-10 21-30 13.7-50-7.4-20-36-40-43.5-60s6.1-40 13-60c6.8-20 6.8-40 13.3-60s19.5-40 21.7-60c2.1-20-6.5-40-18-60s-25.9-40-28.7-60 5.8-40 13.3-60 13.9-40 20-60C710 40 716 20 719 10l3-10h178v600Z" fill="#d0161e"/><path d="m717 600 3.5-10c3.5-10 10.5-30 7.2-50-3.4-20-17-40-22-60s-1.4-40 4-60c5.3-20 12.3-40 16.5-60 4.1-20 5.5-40 8-60s6.1-40 9.1-60 5.4-40 2.5-60c-2.8-20-10.8-40-18.6-60-7.9-20-15.5-40-14-60s12.1-40 17.5-50L736 0h164v600Z" fill="#c1141c"/><path d="m772 600 5.5-10c5.5-10 16.5-30 16.5-50s-11-40-14.5-60 .5-40-2.8-60c-3.4-20-14-40-14.5-60s9.1-40 6.8-60-16.7-40-16.7-60 14.4-40 19.9-60 2.1-40-4.2-60-15.7-40-10-60 26.3-40 36.7-50L805 0h95v600Z" fill="#b2131a"/><path d="m837 600 1.8-10c1.9-10 5.5-30 3.9-50-1.7-20-8.7-40-16.4-60-7.6-20-16-40-15.1-60 .8-20 10.8-40 17.6-60 6.9-20 10.5-40 10-60s-5.1-40-6-60c-.8-20 2.2-40-3.6-60-5.9-20-20.5-40-24.4-60-3.8-20 3.2-40 8.9-60 5.6-20 10-40 12.1-50L828 0h72v600Z" fill="#a31218"/></svg>